<?xml version="1.0" encoding="UTF-8" standalone="no"?>
<!-- Created with Inkscape (http://www.inkscape.org/) -->

<svg
   xmlns:dc="http://purl.org/dc/elements/1.1/"
   xmlns:cc="http://creativecommons.org/ns#"
   xmlns:rdf="http://www.w3.org/1999/02/22-rdf-syntax-ns#"
   xmlns:svg="http://www.w3.org/2000/svg"
   xmlns="http://www.w3.org/2000/svg"
   xmlns:sodipodi="http://sodipodi.sourceforge.net/DTD/sodipodi-0.dtd"
   xmlns:inkscape="http://www.inkscape.org/namespaces/inkscape"
   width="300"
   height="510.00006"
   id="svg2"
   version="1.1"
   inkscape:version="0.48.3.1 r9886"
   sodipodi:docname="battery-000.svg">
  <defs
     id="defs4">
    <inkscape:path-effect
       effect="skeletal"
       id="path-effect2986"
       is_visible="true"
       pattern="m 2158.8712,965.08791 c 0,-2.76 2.2399,-5 4.9999,-5 2.76,0 5,2.24 5,5 0,2.76 -2.24,5 -5,5 -2.76,0 -4.9999,-2.24 -4.9999,-5 z"
       copytype="single_stretched"
       prop_scale="1"
       scale_y_rel="false"
       spacing="0"
       normal_offset="0"
       tang_offset="0"
       prop_units="false"
       vertical_pattern="false"
       fuse_tolerance="0" />
  </defs>
  <sodipodi:namedview
     id="base"
     pagecolor="#ffffff"
     bordercolor="#666666"
     borderopacity="1.0"
     inkscape:pageopacity="0.0"
     inkscape:pageshadow="2"
     inkscape:zoom="0.59705875"
     inkscape:cx="-317.25277"
     inkscape:cy="243.27258"
     inkscape:document-units="px"
     inkscape:current-layer="layer1"
     showgrid="false"
     inkscape:window-width="1440"
     inkscape:window-height="819"
     inkscape:window-x="0"
     inkscape:window-y="0"
     inkscape:window-maximized="1"
     fit-margin-top="0"
     fit-margin-left="0"
     fit-margin-right="0"
     fit-margin-bottom="0" />
  <metadata
     id="metadata7">
    <rdf:RDF>
      <cc:Work
         rdf:about="">
        <dc:format>image/svg+xml</dc:format>
        <dc:type
           rdf:resource="http://purl.org/dc/dcmitype/StillImage" />
        <dc:title />
      </cc:Work>
    </rdf:RDF>
  </metadata>
  <g
     inkscape:label="Layer 1"
     inkscape:groupmode="layer"
     id="layer1"
     transform="translate(0,-542.36218)">
    <rect
       style="fill:#ffffff;fill-opacity:1;stroke:#ff0000;stroke-width:30;stroke-linecap:round;stroke-miterlimit:4;stroke-opacity:1;stroke-dasharray:none;stroke-dashoffset:0"
       id="rect2985"
       width="270"
       height="420"
       x="15"
       y="617.36224" />
    <rect
       style="fill:#ff0000;fill-opacity:1;stroke:#000000;stroke-width:0;stroke-linecap:round;stroke-miterlimit:4;stroke-opacity:1;stroke-dasharray:none;stroke-dashoffset:0"
       id="rect2985-0"
       width="120.00001"
       height="60.000004"
       x="90.5"
       y="541.86218"
       inkscape:transform-center-x="181.43835"
       inkscape:transform-center-y="66.757159" />
    <path
       style="fill:#ff0000;fill-opacity:1;fill-rule:evenodd;stroke:none"
       d="m 129.23599,690.67974 c 0.30972,0.19287 -0.34491,1.80091 -1.47986,4.80277 -1.13494,3.00187 -2.6825,7.45024 -4.0985,13.32872 -1.40002,5.83728 -2.63082,13.06407 -3.41286,21.53514 -0.62307,6.75951 -0.98272,14.2746 -0.95281,22.45622 0.0299,8.18162 0.45161,17.03052 1.27429,26.42242 1.25947,14.26681 3.40359,29.758 7.33465,45.80747 0,1e-5 1e-5,1e-5 1e-5,2e-5 1.43717,5.85706 3.08715,11.74098 5.23098,17.4941 1.55931,4.10996 3.16243,8.04814 5.43296,11.30861 3.07036,4.50318 5.85347,9.06921 8.85248,13.32351 0.83426,1.12874 1.43226,2.03398 1.994,2.49023 0.41227,0.0131 -1.2e-4,0.0879 -1.30649,-0.26392 -1.21563,0.40186 -1.57709,0.30248 -1.0862,0.19918 0.60296,-0.5321 1.23129,-1.47635 2.08204,-2.64024 0,0 0,-1e-5 10e-6,-1e-5 2.93858,-4.18162 5.77312,-8.7069 8.97358,-13.25829 0.38441,-0.53645 0.75204,-1.09361 1.10563,-1.66937 1.7261,-2.81067 3.09952,-6.03022 4.45324,-9.38973 2.21269,-5.58742 3.97268,-11.35172 5.53292,-17.15004 4.11156,-15.30591 6.64122,-30.50197 8.23677,-45.06494 0.93923,-8.63435 1.54352,-17.02864 1.7515,-25.10512 0.20798,-8.07648 0.0197,-15.8352 -0.56413,-23.21605 -0.60205,-7.59338 -1.62582,-14.73702 -3.2038,-21.30381 -1.55618,-6.43094 -3.58115,-12.26681 -6.26225,-17.23559 -1.96116,-3.66498 -4.7932,-6.60988 -7.90295,-8.57005 -3.38832,-2.14907 -7.12439,-3.21727 -10.55526,-3.47915 -2.14687,-0.16378 -4.19691,-0.018 -6.06892,0.32787 -1.872,0.34583 -3.56721,0.89166 -5.06087,1.53901 -1.77886,0.65165 -3.2757,1.45778 -4.52026,2.2689 -1.24457,0.81112 -2.23829,1.62841 -3.02949,2.35215 -1.58239,1.44749 -2.37865,2.50036 -2.68568,2.7303 -0.0646,-0.0402 -0.0647,-0.0403 -0.0647,-0.0403 0,0 -1.8e-4,-1.1e-4 -0.0647,-0.0403 0.0733,-0.38072 0.62178,-1.64009 1.93923,-3.54546 0.65872,-0.95268 1.51742,-2.05971 2.63905,-3.22964 1.12162,-1.16994 2.50748,-2.40407 4.21541,-3.54752 1.62224,-0.95681 3.51575,-1.81669 5.66833,-2.44969 2.15258,-0.63299 4.5655,-1.03906 7.16971,-1.06427 4.15966,-0.0405 8.80865,0.89237 13.25529,3.30055 4.08735,2.22608 7.89474,5.68392 10.65433,10.23764 3.29576,5.43671 5.87334,11.76218 7.79651,18.5742 1.97585,6.95962 3.35283,14.49358 4.22617,22.39986 0.84921,7.67402 1.27379,15.73803 1.26487,24.10803 -0.009,8.37 -0.45146,17.04586 -1.27362,25.92612 -1.37549,14.97978 -3.81217,30.71135 -7.98362,46.66491 -1.57787,6.04469 -3.43095,12.18041 -5.81743,18.27178 -1.38279,3.58938 -3.01428,7.326 -5.23578,10.95058 -0.45507,0.74249 -0.93388,1.47841 -1.43906,2.20553 -3.00125,4.25753 -5.85099,8.78462 -9.00565,13.24455 0,0 0,10e-6 -1e-5,10e-6 -0.81992,1.20547 -1.87827,2.63835 -3.36154,4.09585 -0.74354,1.07393 -2.58769,2.08379 -5.50259,2.53288 -2.97487,-0.30544 -4.88819,-1.26165 -5.69821,-2.3768 -1.53296,-1.47728 -2.58715,-2.91951 -3.37564,-4.1134 -3.21678,-4.64234 -5.98432,-9.26582 -8.83088,-13.53263 -2.92409,-4.43891 -4.82349,-9.08612 -6.36043,-13.48506 -2.2351,-6.28079 -3.89263,-12.54207 -5.26602,-18.64857 0,-10e-6 0,-10e-6 0,-2e-5 -3.76995,-16.73094 -5.57855,-32.72914 -6.37882,-47.35678 -0.53318,-9.62835 -0.60858,-18.72921 -0.25176,-27.13885 0.35681,-8.40963 1.14347,-16.12834 2.21945,-23.03853 1.34831,-8.66872 3.23138,-16.08217 5.28974,-21.97223 1.0331,-2.96482 2.11234,-5.55968 3.16297,-7.75098 1.05064,-2.1913 2.07041,-3.98116 2.96948,-5.37817 0.89907,-1.39701 1.67549,-2.40307 2.25615,-3.03847 0.58067,-0.63539 0.96424,-0.90154 1.1191,-0.80511 z"
       id="path2984"
       inkscape:path-effect="#path-effect2986"
       inkscape:original-d="m 129.23599,690.67974 c -24.74721,39.74042 -10.92745,141.85502 5.2845,165.88412 16.21194,24.02915 11.16704,23.40105 27.64197,0 16.47491,-23.40101 33.34571,-123.54889 9.75592,-164.61783 -9.48799,-16.51832 -32.77499,-17.1761 -42.68239,-1.26629 z"
       inkscape:connector-curvature="0"
       sodipodi:nodetypes="szzss" />
    <path
       sodipodi:type="arc"
       style="fill:#ff0000;fill-rule:evenodd;stroke:#000000;stroke-width:8.3415308px;stroke-linecap:butt;stroke-linejoin:miter;stroke-opacity:1"
       id="path2990"
       sodipodi:cx="-1682.7865"
       sodipodi:cy="1648.489"
       sodipodi:rx="240.39807"
       sodipodi:ry="276.68457"
       d="m -1442.3884,1648.489 a 240.39807,276.68457 0 1 1 -480.7962,0 240.39807,276.68457 0 1 1 480.7962,0 z"
       transform="matrix(0.12861218,0,0,0.11174458,369.83857,759.75498)" />
    <path
       style="fill:#ff0000;fill-opacity:1;stroke:#ff0000;stroke-width:10;stroke-linecap:round;stroke-miterlimit:4;stroke-opacity:1;stroke-dasharray:none;stroke-dashoffset:0"
       d="m 141.82706,864.8379 c -8.25603,-12.17096 -10.70368,-17.22066 -14.32194,-29.54677 -6.79703,-23.15488 -9.93797,-47.77066 -9.94622,-77.94782 -0.009,-31.12129 3.88963,-52.02856 12.21641,-65.52171 7.6255,-12.35675 23.47114,-15.16318 34.74574,-6.15386 12.91076,10.3167 19.82875,44.10705 16.99023,82.98801 -3.18892,43.681 -11.14548,73.51087 -24.92184,93.4347 -4.22571,6.11136 -7.99928,11.11157 -8.38585,11.11157 -0.38655,0 -3.25598,-3.76386 -6.37653,-8.36412 l 0,0 z"
       id="path3760"
       inkscape:connector-curvature="0" />
  </g>
</svg>
