<?xml version="1.0" encoding="UTF-8" standalone="no"?>
<svg
   xmlns:dc="http://purl.org/dc/elements/1.1/"
   xmlns:cc="http://creativecommons.org/ns#"
   xmlns:rdf="http://www.w3.org/1999/02/22-rdf-syntax-ns#"
   xmlns:svg="http://www.w3.org/2000/svg"
   xmlns="http://www.w3.org/2000/svg"
   version="1.1"
   width="32"
   height="32"
   id="svg1">
  <path
     d="M 4.34375,1.65625 A 3.0003,3.0003 0 0 0 2.5625,6.8125 L 11.75,16 2.5625,25.1875 a 3.0052038,3.0052038 0 1 0 4.25,4.25 L 16,20.25 l 9.1875,9.1875 a 3.0052038,3.0052038 0 1 0 4.25,-4.25 L 20.25,16 29.4375,6.8125 A 3.0003,3.0003 0 0 0 27.25,1.65625 3.0003,3.0003 0 0 0 25.1875,2.5625 L 16,11.75 6.8125,2.5625 A 3.0003,3.0003 0 0 0 4.34375,1.65625 z"
     id="path3934"
     style="font-size:medium;font-style:normal;font-variant:normal;font-weight:normal;font-stretch:normal;text-indent:0;text-align:start;text-decoration:none;line-height:normal;letter-spacing:normal;word-spacing:normal;text-transform:none;direction:ltr;block-progression:tb;writing-mode:lr-tb;text-anchor:start;baseline-shift:baseline;color:#000000;fill:#a0a0a0;fill-opacity:1;stroke:#e0e0e0;stroke-width:1;stroke-miterlimit:4;stroke-opacity:1;stroke-dasharray:none;marker:none;visibility:visible;display:inline;overflow:visible;enable-background:accumulate;font-family:Sans;-inkscape-font-specification:Sans" />
</svg>
