<?xml version="1.0" encoding="UTF-8" standalone="no"?>
<svg
   xmlns:dc="http://purl.org/dc/elements/1.1/"
   xmlns:cc="http://creativecommons.org/ns#"
   xmlns:rdf="http://www.w3.org/1999/02/22-rdf-syntax-ns#"
   xmlns:svg="http://www.w3.org/2000/svg"
   xmlns="http://www.w3.org/2000/svg"
   version="1.1"
   width="48"
   height="48"
   id="svg1">
  <g
     id="g1">
    <path
       d="m 16.642336,2.842336 c -7.7319865,0 -14,6.268014 -14,14 0,7.731986 6.2680135,14 14,14 2.588891,0 5.013444,-0.712415 7.09375,-1.9375 l -9.5625,-9.59375 c -1.37108,-1.37108 -1.37108,-3.56642 0,-4.9375 1.37108,-1.37108 3.56642,-1.37108 4.9375,0 l 9.59375,9.5625 c 1.225085,-2.080306 1.9375,-4.504858 1.9375,-7.09375 0,-7.731986 -6.268014,-14 -14,-14 z"
       id="path1"
       style="fill:#000000;fill-opacity:1;stroke:none" />
    <path
       d="m 18.642336,16.842336 a 2.0000005,2.0000005 0 1 1 -4.000001,0 2.0000005,2.0000005 0 1 1 4.000001,0 z"
       id="path2"
       style="fill:#000000;fill-opacity:1;stroke:none" />
    <path
       d="m 35.960644,20.604295 c -0.489672,-0.489672 -1.43578,-0.331987 -2.12132,0.353553 L 20.757848,34.039324 c -0.68554,0.68554 -0.843225,1.631648 -0.353553,2.12132 0.489671,0.489671 1.43578,0.331987 2.12132,-0.353554 l 4.065864,-4.065864 13.435029,13.435029 c 1.175211,1.175212 3.067429,1.175212 4.242641,0 l 0.707106,-0.707106 c 1.175212,-1.175212 1.175212,-3.06743 0,-4.242641 L 31.541226,26.791479 35.60709,22.725615 c 0.685541,-0.68554 0.843225,-1.631649 0.353554,-2.12132 z"
       id="path3"
       style="fill:#000000;fill-opacity:1;stroke:none" />
  </g>
  <g
     id="g2">
    <path
       d="m 16.142336,1.942336 c -7.7319865,0 -14,6.268014 -14,14 0,7.731986 6.2680135,14 14,14 2.588891,0 5.013444,-0.712415 7.09375,-1.9375 l -9.5625,-9.59375 c -1.37108,-1.37108 -1.37108,-3.56642 0,-4.9375 1.37108,-1.37108 3.56642,-1.37108 4.9375,0 l 9.59375,9.5625 c 1.225085,-2.080306 1.9375,-4.504858 1.9375,-7.09375 0,-7.731986 -6.268014,-14 -14,-14 z"
       id="path4"
       style="fill:#ffffff;fill-opacity:1;stroke:none" />
    <path
       d="m -27.969925,-0.40601477 a 3.0225565,3.1127822 0 1 1 -6.045113,0 3.0225565,3.1127822 0 1 1 6.045113,0 z"
       transform="matrix(0.66169156,0,0,0.64251207,36.649799,16.203205)"
       id="path5"
       style="fill:#ffffff;fill-opacity:1;stroke:none" />
    <path
       d="m 35.460644,19.704295 c -0.489672,-0.489672 -1.43578,-0.331987 -2.12132,0.353553 L 20.257848,33.139324 c -0.68554,0.68554 -0.843225,1.631648 -0.353553,2.12132 0.489671,0.489671 1.43578,0.331987 2.12132,-0.353554 l 4.065864,-4.065864 13.435029,13.435029 c 1.175211,1.175212 3.067429,1.175212 4.242641,0 l 0.707106,-0.707106 c 1.175212,-1.175212 1.175212,-3.06743 0,-4.242641 L 31.041226,25.891479 35.10709,21.825615 c 0.685541,-0.68554 0.843225,-1.631649 0.353554,-2.12132 z"
       id="path6"
       style="fill:#ffffff;fill-opacity:1;stroke:none" />
  </g>
</svg>
