<?xml version="1.0" encoding="UTF-8" standalone="no"?>
<!-- Created with Inkscape (http://www.inkscape.org/) -->
<svg id="svg3304" xmlns:rdf="http://www.w3.org/1999/02/22-rdf-syntax-ns#" xmlns="http://www.w3.org/2000/svg" height="48px" width="48px" xmlns:cc="http://web.resource.org/cc/" xmlns:xlink="http://www.w3.org/1999/xlink" xmlns:dc="http://purl.org/dc/elements/1.1/">
 <defs id="defs3306">
  <linearGradient id="linearGradient5137">
   <stop id="stop5139" style="stop-color:#eeeeec" offset="0"/>
   <stop id="stop5141" style="stop-color:#e6e6e3" offset="1"/>
  </linearGradient>
  <linearGradient id="linearGradient11406" y2="40.22" gradientUnits="userSpaceOnUse" x2="23.529" y1="34.573" x1="23.155">
   <stop id="stop11402" offset="0"/>
   <stop id="stop11404" style="stop-opacity:0" offset="1"/>
  </linearGradient>
  <linearGradient id="linearGradient6246" y2="26.039" gradientUnits="userSpaceOnUse" x2="20.157" y1="5.0996" x1="20.157">
   <stop id="stop6242" style="stop-color:#fff" offset="0"/>
   <stop id="stop6244" style="stop-color:#fff;stop-opacity:0" offset="1"/>
  </linearGradient>
  <linearGradient id="linearGradient5147" y2="38.876" xlink:href="#linearGradient5137" gradientUnits="userSpaceOnUse" x2="39.904" y1="6.376" x1="17.248"/>
  <linearGradient id="linearGradient5223" y2="43.826" xlink:href="#linearGradient5137" gradientUnits="userSpaceOnUse" x2="31.861" y1="37.842" x1="31.743"/>
  <radialGradient id="radialGradient5231" gradientUnits="userSpaceOnUse" cy="42.688" cx="23.938" gradientTransform="matrix(1 0 0 .24763 4.5905e-16 32.117)" r="23.76">
   <stop id="stop5227" offset="0"/>
   <stop id="stop5229" style="stop-opacity:0" offset="1"/>
  </radialGradient>
  <radialGradient id="radialGradient5239" gradientUnits="userSpaceOnUse" cy="32.997" cx="24.006" gradientTransform="matrix(1.2326 1.9487e-23 -1.1422e-23 .77839 -5.5846 2.1544)" r="19">
   <stop id="stop5235" style="stop-color:#729fcf" offset="0"/>
   <stop id="stop5237" style="stop-color:#326194" offset="1"/>
  </radialGradient>
 </defs>
 <metadata id="metadata3309">
  <rdf:RDF>
   <cc:Work rdf:about="">
    <dc:format>image/svg+xml</dc:format>
    <dc:type rdf:resource="http://purl.org/dc/dcmitype/StillImage"/>
    <dc:title>Video display</dc:title>
    <dc:creator>
     <cc:Agent>
      <dc:title>Luca Ferretti &lt;elle.uca@libero.it&gt;</dc:title>
     </cc:Agent>
    </dc:creator>
    <cc:license rdf:resource="http://creativecommons.org/licenses/GPL/2.0/"/>
    <dc:subject>
     <rdf:Bag>
      <rdf:li>monitor</rdf:li>
      <rdf:li>display</rdf:li>
      <rdf:li>video</rdf:li>
      <rdf:li>screen</rdf:li>
      <rdf:li>LCD</rdf:li>
      <rdf:li>CRT</rdf:li>
     </rdf:Bag>
    </dc:subject>
   </cc:Work>
   <cc:License rdf:about="http://creativecommons.org/licenses/GPL/2.0/">
    <cc:permits rdf:resource="http://web.resource.org/cc/Reproduction"/>
    <cc:permits rdf:resource="http://web.resource.org/cc/Distribution"/>
    <cc:requires rdf:resource="http://web.resource.org/cc/Notice"/>
    <cc:permits rdf:resource="http://web.resource.org/cc/DerivativeWorks"/>
    <cc:requires rdf:resource="http://web.resource.org/cc/ShareAlike"/>
    <cc:requires rdf:resource="http://web.resource.org/cc/SourceCode"/>
   </cc:License>
  </rdf:RDF>
 </metadata>
 <g id="layer1">
  <rect id="rect4784" style="fill:none" height="48" width="48" y="0" x="0"/>
  <path id="path13582" style="opacity:.4;fill:url(#radialGradient5231);fill-rule:evenodd" d="m47.697 42.688a23.76 5.8836 0 1 1 -47.519 0 23.76 5.8836 0 1 1 47.519 0z" transform="matrix(.96824 0 0 .86380 1.4476 6.0963)"/>
  <path id="path9222" style="fill-rule:evenodd;color:black;stroke:#888a85;fill:url(#linearGradient5223)" d="m14.375 35.533s1.217 4.935-3.856 4.981c-2.4301 0.022-1.9323 4.035-1.9323 4.035l30.846-0.031s0.419-3.895-2.022-3.941c-4.988-0.092-3.811-5.106-3.811-5.106l-19.225 0.062z"/>
  <path id="rect5040" style="fill-rule:evenodd;stroke:#888a85;fill:url(#linearGradient5147)" d="m4.8886 3.4784h38.128c2.026 0 3.501 1.4277 3.501 3.6262l0.011 26.203c0 1.692-0.528 2.216-2.034 2.216l-40.963-0.019c-1.1792-0.029-2.0185-0.495-2.0344-2.02l0.0152-26.568c0-1.774 1.5394-3.4386 3.3758-3.4386z"/>
  <rect id="rect9208" style="fill-rule:evenodd;stroke:#204a87;stroke-width:1px;fill:url(#radialGradient5239)" height="22.997" width="37" y="7.5018" x="5.5059"/>
  <path id="path5145" style="stroke:#fff;fill:none" d="m4.875 4.3438c-1.3079 0-2.5 1.2946-2.5 2.5624v26.594c0.0063 0.603 0.1457 0.791 0.2812 0.906 0.1356 0.116 0.422 0.207 0.9063 0.219l40.938 0.031c0.651 0 0.857-0.101 0.938-0.187 0.08-0.087 0.218-0.401 0.218-1.157v-26.218c0-1.8074-1.011-2.7502-2.625-2.7502h-38.156z" xlink:href="#rect5040"/>
  <path id="path10672" style="opacity:.6;fill:url(#linearGradient11406);fill-rule:evenodd" d="m13.992 36.039c0.084 2.173-0.283 2.912-1.633 3.675l23.615 1.298c-0.949-1.169-2.329-2.934-1.953-4.988l-20.029 0.015z"/>
  <path id="path4073" style="opacity:.75;fill:url(#linearGradient6246);fill-rule:evenodd" d="m6.0235 8.0314v18.008c16.444-1.354 22.598-10.112 35.968-11.027v-7.012l-35.968 0.0314z"/>
  <path id="path6575" style="stroke-opacity:.43902;stroke:#8d8d8f;stroke-linecap:round;stroke-width:1px;fill:none" d="m9.9921 41.496c6.7069 0.002 27.797 0 27.797 0"/>
  <path id="path8029" style="stroke:#fff;stroke-linecap:round;stroke-width:1px;fill:none" d="m9.6479 42.504c6.7071 0.002 28.72 0 28.72 0"/>
 </g>
</svg>
