<?xml version="1.0" encoding="UTF-8" standalone="no"?>
<!-- Created with Inkscape (http://www.inkscape.org/) -->
<svg id="svg7854" xmlns:rdf="http://www.w3.org/1999/02/22-rdf-syntax-ns#" xmlns="http://www.w3.org/2000/svg" height="48" width="48" version="1.0" xmlns:cc="http://web.resource.org/cc/" xmlns:xlink="http://www.w3.org/1999/xlink" xmlns:dc="http://purl.org/dc/elements/1.1/">
 <defs id="defs7856">
  <linearGradient id="linearGradient7344">
   <stop id="stop7346" style="stop-color:#eeeeec" offset="0"/>
   <stop id="stop7348" style="stop-color:#92948f" offset="1"/>
  </linearGradient>
  <linearGradient id="linearGradient8208" y2="26.023" gradientUnits="userSpaceOnUse" x2="-74.288" gradientTransform="matrix(-1,0,0,1,-152,0)" y1="13.247" x1="-77.712">
   <stop id="stop7579" style="stop-opacity:.31373" offset="0"/>
   <stop id="stop7581" style="stop-color:#fff" offset="1"/>
  </linearGradient>
  <radialGradient id="radialGradient8210" xlink:href="#linearGradient7344" gradientUnits="userSpaceOnUse" cy="31.679" cx="28.541" gradientTransform="matrix(2.2247 0 0 2.6055 -356.63 -51.422)" r="12"/>
  <radialGradient id="radialGradient8212" xlink:href="#linearGradient7344" gradientUnits="userSpaceOnUse" cy="17.833" cx="38.4" gradientTransform="matrix(-1.9143 0 0 1.5918 100.35 .016193)" r="13.552"/>
  <radialGradient id="radialGradient8214" xlink:href="#linearGradient7344" gradientUnits="userSpaceOnUse" cy="17.598" cx="38.204" gradientTransform="matrix(-1.9143 0 0 1.5918 100.35 .016193)" r="13.552"/>
  <linearGradient id="linearGradient8216" y2="38.102" gradientUnits="userSpaceOnUse" x2="98.317" y1="10.023" x1="49.683">
   <stop id="stop7307" style="stop-color:#fff" offset="0"/>
   <stop id="stop7313" style="stop-color:#fff;stop-opacity:0" offset=".20971"/>
   <stop id="stop7329" style="stop-color:#fff;stop-opacity:.81065" offset=".34936"/>
   <stop id="stop7321" style="stop-color:#fff;stop-opacity:0" offset=".42850"/>
   <stop id="stop7323" style="stop-color:#fff" offset=".52134"/>
   <stop id="stop7317" style="stop-color:#fff;stop-opacity:0" offset=".55747"/>
   <stop id="stop7319" style="stop-color:#fff;stop-opacity:.56805" offset=".71002"/>
   <stop id="stop7416" style="stop-color:#fff;stop-opacity:0" offset=".74395"/>
   <stop id="stop7309" style="stop-color:#fff;stop-opacity:0" offset="1"/>
  </linearGradient>
 </defs>
 <metadata id="metadata7859">
  <rdf:RDF>
   <cc:Work rdf:about="">
    <dc:format>image/svg+xml</dc:format>
    <dc:type rdf:resource="http://purl.org/dc/dcmitype/StillImage"/>
    <dc:creator>
     <cc:Agent>
      <dc:title>Lapo Calamandrei</dc:title>
     </cc:Agent>
    </dc:creator>
    <dc:source/>
    <cc:license rdf:resource="http://creativecommons.org/licenses/GPL/2.0/"/>
    <dc:title>Previous Song</dc:title>
    <dc:subject>
     <rdf:Bag>
      <rdf:li>skip</rdf:li>
      <rdf:li>backward</rdf:li>
      <rdf:li>previous</rdf:li>
      <rdf:li>media</rdf:li>
     </rdf:Bag>
    </dc:subject>
   </cc:Work>
   <cc:License rdf:about="http://creativecommons.org/licenses/GPL/2.0/">
    <cc:permits rdf:resource="http://web.resource.org/cc/Reproduction"/>
    <cc:permits rdf:resource="http://web.resource.org/cc/Distribution"/>
    <cc:requires rdf:resource="http://web.resource.org/cc/Notice"/>
    <cc:permits rdf:resource="http://web.resource.org/cc/DerivativeWorks"/>
    <cc:requires rdf:resource="http://web.resource.org/cc/ShareAlike"/>
    <cc:requires rdf:resource="http://web.resource.org/cc/SourceCode"/>
   </cc:License>
  </rdf:RDF>
 </metadata>
 <g id="layer1">
  <g id="g7157" transform="translate(300)">
   <path id="path7687" style="opacity:.4;fill:url(#linearGradient8208);fill-rule:evenodd" d="m-59.938 11c-1.145 0-2.062 0.917-2.062 2.062v8l-15.719-9.343c-0.463-0.28-1.042-0.29-1.514-0.025-0.472 0.266-0.765 0.764-0.767 1.306v8.062l-15.719-9.343c-0.463-0.28-1.042-0.29-1.514-0.025-0.472 0.266-0.765 0.764-0.767 1.306v22c0.002 0.542 0.295 1.04 0.767 1.306 0.472 0.265 1.051 0.255 1.514-0.025l15.719-9.343v8.062c0.002 0.542 0.295 1.04 0.767 1.306 0.472 0.265 1.051 0.255 1.514-0.025l15.719-9.343v8c0 1.145 0.917 2.062 2.062 2.062h3.876c1.145 0 2.062-0.917 2.062-2.062v-21.876c0-1.145-0.917-2.062-2.062-2.062h-3.876z" transform="matrix(-1,0,0,1,-352,0)"/>
   <g id="g7553">
    <rect id="rect7736" style="stroke-linejoin:round;fill-rule:evenodd;stroke-dashoffset:0.7;stroke:#555753;stroke-linecap:round;fill:url(#radialGradient8210)" rx=".55243" ry=".55243" height="23" width="4.9887" y="12.5" x="-296.49"/>
    <g id="g7944" transform="matrix(-1,0,0,1,-234,0)">
     <path id="path7946" style="fill-rule:evenodd;stroke-dashoffset:0.7;stroke:#555753;stroke-linecap:square;fill:url(#radialGradient8212)" d="m21.5 35v-22l18.496 11.01-18.496 10.99z"/>
     <path id="path7948" style="stroke-dashoffset:0.7;stroke:#fff;stroke-linecap:square;fill:none" d="m22.5 14.781v18.438l15.531-9.219-15.531-9.219z"/>
    </g>
    <g id="g7744" transform="matrix(-1,0,0,1,-252,0)">
     <path id="path7746" style="fill-rule:evenodd;stroke-dashoffset:0.7;stroke:#555753;stroke-linecap:square;fill:url(#radialGradient8214)" d="m21.5 35v-22l18.496 11.01-18.496 10.99z"/>
     <path id="path7748" style="stroke-dashoffset:0.7;stroke:#fff;stroke-linecap:square;fill:none" d="m22.5 14.781v18.438l15.531-9.219-15.531-9.219z"/>
    </g>
    <rect id="rect7750" style="stroke-dashoffset:0.7;stroke:#fff;stroke-linecap:round;fill:none" rx="0" ry="0" height="21" width="3.0098" y="13.5" x="-295.48"/>
    <path id="path6332" style="opacity:.15;fill:url(#linearGradient8216);fill-rule:evenodd" d="m54.062 13c-0.029 0-0.062 0.033-0.062 0.062v21.876c0 0.029 0.033 0.062 0.062 0.062h3.876c0.029 0 0.062-0.033 0.062-0.062v-10.626c0.004-0.115 0.048-0.226 0.125-0.312-0.077-0.086-0.121-0.197-0.125-0.312v-10.626c0-0.029-0.033-0.062-0.062-0.062h-3.876zm21.938 0.875l-17.031 10.125 17.031 10.125v-9.813c0.004-0.115 0.048-0.226 0.125-0.312-0.077-0.086-0.121-0.197-0.125-0.312v-9.813zm18 0l-17.031 10.125 17.031 10.125v-20.25z" transform="matrix(1,0,0,-1,-350,48)"/>
   </g>
  </g>
 </g>
</svg>
