<?xml version="1.0" encoding="UTF-8" standalone="no"?>
<!-- Created with Inkscape (http://www.inkscape.org/) -->
<svg id="svg2" xmlns:rdf="http://www.w3.org/1999/02/22-rdf-syntax-ns#" xmlns="http://www.w3.org/2000/svg" height="48" width="48" version="1.0" xmlns:cc="http://web.resource.org/cc/" xmlns:xlink="http://www.w3.org/1999/xlink" xmlns:dc="http://purl.org/dc/elements/1.1/">
 <defs id="defs4">
  <radialGradient id="radialGradient3286" gradientUnits="userSpaceOnUse" cy="14.125" cx="21.344" gradientTransform="matrix(1 0 0 .30287 8.3419e-16 9.8469)" r="11.969">
   <stop id="stop3282" offset="0"/>
   <stop id="stop3284" style="stop-opacity:0" offset="1"/>
  </radialGradient>
  <radialGradient id="radialGradient3337" gradientUnits="userSpaceOnUse" cy="16.677" cx="19.718" gradientTransform="matrix(.69003 0 0 .22828 6.6159 10.901)" r="12.469">
   <stop id="stop7453" style="stop-color:#fff" offset="0"/>
   <stop id="stop7455" style="stop-color:#fff;stop-opacity:.18702" offset="1"/>
  </radialGradient>
  <radialGradient id="radialGradient3339" gradientUnits="userSpaceOnUse" cy="23.649" cx="18.371" gradientTransform="matrix(1.2533 -.34871 .10981 .42552 -7.5807 13.834)" r="12.469">
   <stop id="stop3176" style="stop-color:#fff" offset="0"/>
   <stop id="stop3178" style="stop-color:#fff;stop-opacity:0" offset="1"/>
  </radialGradient>
  <linearGradient id="linearGradient3341" y2="18.613" gradientUnits="userSpaceOnUse" x2="25.532" y1="9.9905" x1="31.187">
   <stop id="stop7509" style="stop-color:#888a85" offset="0"/>
   <stop id="stop7511" style="stop-color:#888a85;stop-opacity:0" offset="1"/>
  </linearGradient>
  <radialGradient id="radialGradient3347" gradientUnits="userSpaceOnUse" cy="11.205" cx="19.864" gradientTransform="matrix(2.1161 0 .000010747 .78739 -21.867 2.1771)" r="4">
   <stop id="stop3229" style="stop-color:#fff" offset="0"/>
   <stop id="stop3231" style="stop-color:#fff;stop-opacity:0" offset="1"/>
  </radialGradient>
  <linearGradient id="linearGradient3384" y2="10.985" xlink:href="#linearGradient4134" gradientUnits="userSpaceOnUse" x2="19.083" gradientTransform="translate(2)" y1="10.985" x1="26.473"/>
  <linearGradient id="linearGradient3398" y2="31.383" gradientUnits="userSpaceOnUse" x2="20.683" gradientTransform="translate(2)" y1="10.496" x1="13.965">
   <stop id="stop3292" style="stop-color:#fff" offset="0"/>
   <stop id="stop3294" style="stop-color:#fff;stop-opacity:0" offset="1"/>
  </linearGradient>
  <linearGradient id="linearGradient3401" y2="34.174" gradientUnits="userSpaceOnUse" x2="17.125" gradientTransform="translate(2)" y1="20.231" x1="12.25">
   <stop id="stop3256" style="stop-color:#fff" offset="0"/>
   <stop id="stop3258" style="stop-color:#fff;stop-opacity:0" offset="1"/>
  </linearGradient>
  <linearGradient id="linearGradient4134">
   <stop id="stop4136" style="stop-color:#d6d7d5" offset="0"/>
   <stop id="stop4148" style="stop-color:#d1d2d0" offset=".25"/>
   <stop id="stop4142" style="stop-color:#a5a6a3" offset=".5"/>
   <stop id="stop4138" style="stop-color:#dddedc" offset="1"/>
  </linearGradient>
  <linearGradient id="linearGradient6477" y2="24.875" xlink:href="#linearGradient4134" gradientUnits="userSpaceOnUse" x2="37.641" y1="24.875" x1="11.492"/>
  <linearGradient id="linearGradient7461" y2="32.719" gradientUnits="userSpaceOnUse" x2="44" gradientTransform="matrix(.95238 0 0 .62796 -7.9286 13.115)" y1="32.719" x1="16.375">
   <stop id="stop7491" style="stop-color:#dcc500" offset="0"/>
   <stop id="stop7493" style="stop-color:#fdea50" offset=".5"/>
   <stop id="stop7495" style="stop-color:#dcc500" offset="1"/>
  </linearGradient>
  <linearGradient id="linearGradient7463" y2="35.086" gradientUnits="userSpaceOnUse" x2="15.192" y1="42.982" x1="15.192">
   <stop id="stop7485" style="stop-color:#edd400" offset="0"/>
   <stop id="stop7487" style="stop-color:#fce94f" offset="1"/>
  </linearGradient>
  <linearGradient id="linearGradient7465" y2="41.72" gradientUnits="userSpaceOnUse" x2="16.175" y1="35.75" x1="16.76">
   <stop id="stop7479" style="stop-color:#c4a000" offset="0"/>
   <stop id="stop7481" style="stop-color:#fff5a8" offset="1"/>
  </linearGradient>
  <linearGradient id="linearGradient7505" y2="13.25" gradientUnits="userSpaceOnUse" x2="21.188" y1="11.375" x1="22">
   <stop id="stop7501" style="stop-color:#888a85" offset="0"/>
   <stop id="stop7503" style="stop-color:#babdb6" offset="1"/>
  </linearGradient>
 </defs>
 <metadata id="metadata7">
  <rdf:RDF>
   <cc:Work rdf:about="">
    <dc:format>image/svg+xml</dc:format>
    <dc:type rdf:resource="http://purl.org/dc/dcmitype/StillImage"/>
    <dc:creator>
     <cc:Agent>
      <dc:title>Lapo Calamandrei</dc:title>
     </cc:Agent>
    </dc:creator>
    <dc:title>Battery</dc:title>
    <dc:subject>
     <rdf:Bag>
      <rdf:li>battery</rdf:li>
      <rdf:li>recharge</rdf:li>
      <rdf:li>power</rdf:li>
      <rdf:li>acpi</rdf:li>
      <rdf:li>apm</rdf:li>
     </rdf:Bag>
    </dc:subject>
    <cc:license rdf:resource="http://creativecommons.org/licenses/GPL/2.0/"/>
   </cc:Work>
   <cc:License rdf:about="http://creativecommons.org/licenses/GPL/2.0/">
    <cc:permits rdf:resource="http://web.resource.org/cc/Reproduction"/>
    <cc:permits rdf:resource="http://web.resource.org/cc/Distribution"/>
    <cc:requires rdf:resource="http://web.resource.org/cc/Notice"/>
    <cc:permits rdf:resource="http://web.resource.org/cc/DerivativeWorks"/>
    <cc:requires rdf:resource="http://web.resource.org/cc/ShareAlike"/>
    <cc:requires rdf:resource="http://web.resource.org/cc/SourceCode"/>
   </cc:License>
  </rdf:RDF>
 </metadata>
 <g id="layer6">
  <path id="path3278" style="opacity:.36567;color:#000000;fill:url(#radialGradient3286)" d="m33.312 14.125a11.969 3.625 0 1 1 -23.937 0 11.969 3.625 0 1 1 23.937 0z" transform="matrix(1.389 0 0 1.3376 -6.1472 18.981)"/>
 </g>
 <g id="layer5">
  <path id="path2217" style="color:#000000;fill:url(#linearGradient6477)" d="m22 10.5c-5.916 0.217-10.5 1.716-10.5 3.5v23c0 1.932 5.376 3.5 12 3.5s12-1.568 12-3.5v-23c0-1.932-5.376-3.5-12-3.5-0.362 0-0.708-0.009-1.062 0-0.144 0.004-0.296-0.005-0.438 0z"/>
  <path id="path3263" style="opacity:.63922;color:#000000;fill:url(#linearGradient3341)" d="m33.312 14.125a11.969 3.625 0 1 1 -23.937 0 11.969 3.625 0 1 1 23.937 0z" transform="matrix(1.0026 0 0 .96552 2.1005 .36206)"/>
  <g id="g7467">
   <path id="path7457" style="stroke-linejoin:round;color:#000000;stroke:#c4a000;stroke-linecap:round;fill:url(#linearGradient7461)" d="m13.5 29v7.349c0 1.189 4.48 2.159 10 2.159s10-0.97 10-2.159v-7.349h-20z"/>
   <path id="path7459" style="stroke-linejoin:round;stroke-width:1.2344;color:#000000;stroke:url(#linearGradient7465);stroke-linecap:round;fill:url(#linearGradient7463)" d="m24.042 38.542a7.8666 4.8614 0 1 1 -15.734 0 7.8666 4.8614 0 1 1 15.734 0z" transform="matrix(1.2762 0 0 .51426 2.8968 9.1792)"/>
  </g>
  <path id="path3288" style="opacity:.52239;color:#000000;fill:url(#linearGradient3398)" d="m22 10.5c-5.916 0.217-10.5 1.716-10.5 3.5v23c0 1.932 5.376 3.5 12 3.5s12-1.568 12-3.5v-23c0-1.932-5.376-3.5-12-3.5-0.362 0-0.708-0.009-1.062 0-0.144 0.004-0.296-0.005-0.438 0z"/>
  <path id="path2206" style="opacity:.49020;stroke-linejoin:round;color:#000000;stroke:#fff;stroke-linecap:round;fill:none" d="m21.844 11.5c-5.295 0.181-9.344 1.247-9.344 2.5v23c0 1.38 4.928 2.5 11 2.5s11-1.12 11-2.5v-23c0-1.38-4.928-2.5-11-2.5-0.38 0-0.755-0.009-1.125 0-0.173 0.004-0.36-0.006-0.531 0z"/>
  <path id="path3164" style="stroke-linejoin:round;color:#000000;stroke:url(#radialGradient3339);stroke-linecap:round;fill:url(#radialGradient3337)" d="m33.312 14.125a11.969 3.625 0 1 1 -23.937 0 11.969 3.625 0 1 1 23.937 0z" transform="matrix(1.0026 0 0 .96552 2.1005 .36206)"/>
  <path id="path7448" style="stroke-linejoin:round;color:#000000;stroke:#888a85;stroke-linecap:round;fill:none" d="m22 10.5c-5.916 0.217-10.5 1.716-10.5 3.5v23c0 1.932 5.376 3.5 12 3.5s12-1.568 12-3.5v-23c0-1.932-5.376-3.5-12-3.5-0.362 0-0.708-0.009-1.062 0-0.144 0.004-0.296-0.005-0.438 0z"/>
  <path id="rect3244" style="opacity:.58209;color:#000000;fill:url(#linearGradient3401)" d="m15 16.375l5 0.937v23l-5-0.812v-23.125z"/>
  <path id="path3198" style="color:#000000;fill:url(#linearGradient3384)" d="m23 9.5c-1.684 0.0804-3.05 0.574-3.406 1.188-0.007 0.012-0.026 0.05-0.032 0.062-0.002 0.006-0.028 0.025-0.031 0.031-0.002 0.006 0.002 0.025 0 0.031-0.009 0.032-0.027 0.094-0.031 0.126-0.001 0.006 0 0.024 0 0.031v2.031 0.031c0 0.007-0.001 0.025 0 0.031 0.004 0.032 0.022 0.094 0.031 0.126 0.002 0.006-0.002 0.025 0 0.031 0.003 0.006 0.029 0.025 0.031 0.031 0.006 0.012 0.025 0.05 0.032 0.062 0.391 0.675 1.991 1.188 3.906 1.188s3.515-0.513 3.906-1.188c0.007-0.012 0.026-0.05 0.032-0.062 0.002-0.006 0.028-0.025 0.031-0.031 0.002-0.006-0.002-0.025 0-0.031 0.009-0.032 0.027-0.094 0.031-0.126 0.001-0.006 0-0.024 0-0.031v-0.031-2.031c0-0.007 0.001-0.025 0-0.031-0.004-0.032-0.022-0.094-0.031-0.126-0.002-0.006 0.002-0.025 0-0.031-0.003-0.006-0.029-0.025-0.031-0.031-0.006-0.012-0.025-0.05-0.032-0.062-0.391-0.675-1.991-1.188-3.906-1.188-0.172 0-0.333-0.008-0.5 0z"/>
  <path id="path3225" style="color:#000000;fill:url(#radialGradient3347)" d="m25.5 11a4 1.5 0 1 1 -8 0 4 1.5 0 1 1 8 0z" transform="matrix(.86742 0 0 .66667 4.8202 3.6667)"/>
  <path id="path3205" style="stroke-linejoin:round;color:#000000;stroke:url(#linearGradient7505);stroke-linecap:round;fill:none" d="m23 9.5c-1.684 0.0804-3.05 0.574-3.406 1.188-0.007 0.012-0.026 0.05-0.032 0.062-0.002 0.006-0.028 0.025-0.031 0.031-0.002 0.006 0.002 0.025 0 0.031-0.009 0.032-0.027 0.094-0.031 0.126-0.001 0.006 0 0.024 0 0.031v2.031 0.031c0 0.007-0.001 0.025 0 0.031 0.004 0.032 0.022 0.094 0.031 0.126 0.002 0.006-0.002 0.025 0 0.031 0.003 0.006 0.029 0.025 0.031 0.031 0.006 0.012 0.025 0.05 0.032 0.062 0.391 0.675 1.991 1.188 3.906 1.188s3.515-0.513 3.906-1.188c0.007-0.012 0.026-0.05 0.032-0.062 0.002-0.006 0.028-0.025 0.031-0.031 0.002-0.006-0.002-0.025 0-0.031 0.009-0.032 0.027-0.094 0.031-0.126 0.001-0.006 0-0.024 0-0.031v-0.031-2.031c0-0.007 0.001-0.025 0-0.031-0.004-0.032-0.022-0.094-0.031-0.126-0.002-0.006 0.002-0.025 0-0.031-0.003-0.006-0.029-0.025-0.031-0.031-0.006-0.012-0.025-0.05-0.032-0.062-0.391-0.675-1.991-1.188-3.906-1.188-0.172 0-0.333-0.008-0.5 0z"/>
 </g>
</svg>
