<?xml version="1.0" encoding="UTF-8" standalone="no"?>
<!-- Created with Inkscape (http://www.inkscape.org/) -->
<svg id="svg1306" xmlns:rdf="http://www.w3.org/1999/02/22-rdf-syntax-ns#" xmlns="http://www.w3.org/2000/svg" height="48px" width="48px" xmlns:cc="http://web.resource.org/cc/" xmlns:xlink="http://www.w3.org/1999/xlink" xmlns:dc="http://purl.org/dc/elements/1.1/">
 <defs id="defs1308">
  <linearGradient id="linearGradient5060">
   <stop id="stop5062" offset="0"/>
   <stop id="stop5064" style="stop-opacity:0" offset="1"/>
  </linearGradient>
  <linearGradient id="linearGradient2899" y2="17.47" gradientUnits="userSpaceOnUse" x2="9.0151" gradientTransform="matrix(1.1695 0 0 1.8668 -4.0885 -5.4933)" y1="17.289" x1="39.847">
   <stop id="stop3861" style="stop-color:#d3d7cf" offset="0"/>
   <stop id="stop3037" style="stop-color:#eeeeec" offset=".30973"/>
   <stop id="stop3039" style="stop-color:#fff" offset=".88648"/>
   <stop id="stop3863" style="stop-color:#d3d7cf" offset="1"/>
  </linearGradient>
  <linearGradient id="linearGradient2925" y2="30.106" gradientUnits="userSpaceOnUse" x2="31.26" gradientTransform="matrix(1.1684 0 0 .94012 -5.224 3.7081)" y1="28.921" x1="31.26">
   <stop id="stop3944" style="stop-color:#888a85" offset="0"/>
   <stop id="stop3946" style="stop-color:#eeeeec" offset="1"/>
  </linearGradient>
  <linearGradient id="linearGradient3883" y2="63.92" gradientUnits="userSpaceOnUse" x2="75" gradientTransform="matrix(1.1969 0 0 1.2326 -76.532 -39.773)" y1="56.938" x1="75">
   <stop id="stop3879" offset="0"/>
   <stop id="stop3881" style="stop-color:#fff;stop-opacity:.77320" offset="1"/>
  </linearGradient>
  <linearGradient id="linearGradient3903" y2="609.51" gradientUnits="userSpaceOnUse" x2="302.86" gradientTransform="matrix(2.7744 0 0 1.9697 -1892.2 -872.89)" y1="366.65" x1="302.86">
   <stop id="stop5050" style="stop-opacity:0" offset="0"/>
   <stop id="stop5056" offset=".5"/>
   <stop id="stop5052" style="stop-opacity:0" offset="1"/>
  </linearGradient>
  <radialGradient id="radialGradient3905" xlink:href="#linearGradient5060" gradientUnits="userSpaceOnUse" cy="486.65" cx="605.71" gradientTransform="matrix(2.7744 0 0 1.9697 -1891.6 -872.89)" r="117.14"/>
  <radialGradient id="radialGradient3907" xlink:href="#linearGradient5060" gradientUnits="userSpaceOnUse" cy="486.65" cx="605.71" gradientTransform="matrix(-2.7744 0 0 1.9697 112.76 -872.89)" r="117.14"/>
  <linearGradient id="linearGradient3769" y2="32.024" gradientUnits="userSpaceOnUse" x2="35.239" gradientTransform="translate(1,2)" y1="34.193" x1="36.052">
   <stop id="stop3765" style="stop-color:#888a85" offset="0"/>
   <stop id="stop3767" style="stop-color:#babdb6" offset="1"/>
  </linearGradient>
  <linearGradient id="linearGradient2815" y2="34" gradientUnits="userSpaceOnUse" x2="22.777" gradientTransform="matrix(1 0 0 1.1667 0 -2.6667)" y1="32.072" x1="22.777">
   <stop id="stop2811" style="stop-color:#d3d7cf" offset="0"/>
   <stop id="stop2813" style="stop-color:#eeeeec;stop-opacity:0" offset="1"/>
  </linearGradient>
  <linearGradient id="linearGradient3715" y2="33.659" gradientUnits="userSpaceOnUse" x2="19.562" gradientTransform="matrix(1 0 0 1.3333 0 -8.3333)" y1="31.812" x1="19.562">
   <stop id="stop3711" offset="0"/>
   <stop id="stop3713" style="stop-opacity:0" offset="1"/>
  </linearGradient>
  <linearGradient id="linearGradient3731" y2="33.553" gradientUnits="userSpaceOnUse" x2="29.522" gradientTransform="matrix(1 0 0 1.3333 0 -8.3333)" y1="32.024" x1="29.522">
   <stop id="stop3727" style="stop-color:#eeeeec" offset="0"/>
   <stop id="stop3729" style="stop-color:#eeeeec;stop-opacity:0" offset="1"/>
  </linearGradient>
 </defs>
 <metadata id="metadata1311">
  <rdf:RDF>
   <cc:Work rdf:about="">
    <dc:format>image/svg+xml</dc:format>
    <dc:type rdf:resource="http://purl.org/dc/dcmitype/StillImage"/>
    <dc:title>Drive Removable Media</dc:title>
    <dc:creator>
     <cc:Agent>
      <dc:title>Lapo Calamandrei</dc:title>
     </cc:Agent>
    </dc:creator>
    <dc:description/>
    <cc:license rdf:resource="http://creativecommons.org/licenses/GPL/2.0/"/>
    <dc:source>http://www.gnome.org</dc:source>
    <dc:contributor>
     <cc:Agent>
      <dc:title>Jakub Steiner</dc:title>
     </cc:Agent>
    </dc:contributor>
    <dc:date>2006</dc:date>
    <dc:subject>
     <rdf:Bag>
      <rdf:li>drive</rdf:li>
      <rdf:li>removable</rdf:li>
      <rdf:li>media</rdf:li>
     </rdf:Bag>
    </dc:subject>
   </cc:Work>
   <cc:License rdf:about="http://creativecommons.org/licenses/GPL/2.0/">
    <cc:permits rdf:resource="http://web.resource.org/cc/Reproduction"/>
    <cc:permits rdf:resource="http://web.resource.org/cc/Distribution"/>
    <cc:requires rdf:resource="http://web.resource.org/cc/Notice"/>
    <cc:permits rdf:resource="http://web.resource.org/cc/DerivativeWorks"/>
    <cc:requires rdf:resource="http://web.resource.org/cc/ShareAlike"/>
    <cc:requires rdf:resource="http://web.resource.org/cc/SourceCode"/>
   </cc:License>
  </rdf:RDF>
 </metadata>
 <g id="layer1">
  <g id="g3895" transform="matrix(.023640 0 0 .036695 45.526 31.536)">
   <rect id="rect3897" style="opacity:.40206;color:black;fill:url(#linearGradient3903)" height="478.36" width="1339.6" y="-150.7" x="-1559.3"/>
   <path id="path3899" style="opacity:.40206;color:black;fill:url(#radialGradient3905)" d="m-219.62-150.68v478.33c142.88 0.9 345.4-107.17 345.4-239.2 0-132.02-159.44-239.13-345.4-239.13z"/>
   <path id="path3901" style="opacity:.40206;color:black;fill:url(#radialGradient3907)" d="m-1559.3-150.68v478.33c-142.8 0.9-345.4-107.17-345.4-239.2 0-132.02 159.5-239.13 345.4-239.13z"/>
  </g>
  <path id="path2897" style="stroke-linejoin:round;fill-rule:evenodd;stroke:#888a85;stroke-width:1.067px;fill:url(#linearGradient2899)" d="m12.844 8.5312c-2.612 0.0001-4.3543 1.7978-5.3128 4.8128 0.0001 0-3.75 17.062-3.75 17.062-0.2431 1.016-0.2499 2.06-0.2812 3.094 0 3.872 3.1277 7 7 7h28c3.872 0 7-3.128 7-7-0.032-1.393-0.107-2.719-0.406-4.094l-4.282-16.375c-0.933-2.577-2.684-4.4998-5.187-4.4998h-22.781z"/>
  <path id="path3925" style="opacity:.4;stroke:#fff;stroke-linecap:round;stroke-width:1px;fill:none" d="m39.663 26.211l-3.106-15.657"/>
  <path id="path2960" style="opacity:.7;stroke-linejoin:round;stroke:#fff;fill:none" d="m12.816 9.6325c-2.059 0-3.3799 1.2375-4.1313 3.8035l-3.6843 17.067c-0.4943 2.94 0.9859 7.629 5.6366 8.693h27.735c5.364-0.205 6.969-4.986 5.75-9.069l-4.332-16.472c-0.794-2.44-2.336-4.144-4.307-4.144l-22.667 0.1215z"/>
  <rect id="rect2909" style="stroke-linejoin:round;color:black;stroke-dashoffset:1.2;stroke:#fff;stroke-linecap:round;fill:#d3d7cf" rx="5.8864" ry="5.9896" height="11.979" width="39.994" y="27.521" x="4.5061"/>
  <rect id="rect2898" style="opacity:.3;stroke-linejoin:round;color:black;stroke-dashoffset:1.2;stroke:url(#linearGradient3883);stroke-linecap:round;fill:#babdb6" rx="4.7875" ry="4.9306" height="10" width="38" y="28.5" x="5.5"/>
  <rect id="rect1949" style="stroke-linejoin:round;stroke:url(#linearGradient3769);stroke-linecap:round;fill:#babdb6" rx="1" ry="1" height="2" width="6" y="34.528" x="34.561"/>
  <rect id="rect1916" style="fill:#d3d7cf" rx="1.0938" ry="1.0938" height="4" width="31" y="30" x="9"/>
  <rect id="rect2807" style="opacity:.8;fill:url(#linearGradient2815)" rx="0" ry="0" height="7" width="11" y="30" x="19"/>
  <rect id="rect3704" style="opacity:.5;fill:url(#linearGradient3731)" height="4" width="1" y="33" x="29"/>
  <rect id="rect3706" style="opacity:.1;fill:url(#linearGradient3715)" height="4" width="1" y="33" x="19"/>
  <path id="rect1951" style="stroke-linejoin:round;stroke:url(#linearGradient2925);stroke-linecap:round;fill:#babdb6" d="m10.126 30.5h28.748c0.347 0 0.626 0.225 0.626 0.504v0.986c0 0.279-0.279 0.504-0.626 0.504h-8.874l-1.5 1.006h-8l-1.5-1.006h-8.874c-0.3468 0-0.626-0.225-0.626-0.504v-0.986c0-0.279 0.2792-0.504 0.626-0.504z"/>
  <g id="g1933" transform="translate(-1,3)">
   <rect id="rect1965" style="stroke-linejoin:round;stroke:#eeeeec;stroke-linecap:round;fill:#eeeeec" rx=".51535" ry=".5" height="1" width="3" y="32.533" x="9.5884"/>
   <path id="path3893" style="color:black;fill:#fff" d="m73.078 61.469a0.48438 0.35938 0 1 1 -0.969 0 0.48438 0.35938 0 1 1 0.969 0z" transform="matrix(1.6787 0 0 2.1718 -111.83 -100.66)"/>
  </g>
  <path id="path3921" style="stroke:#fff;stroke-linecap:round;stroke-width:1px;fill:none" d="m8.4628 26.476l3.2142-15.62"/>
  <path id="path3923" style="opacity:.7;stroke:#fff;stroke-linecap:round;stroke-width:1.1566px;fill:none" d="m12.542 26.343l1.341-15.932"/>
  <path id="path3927" style="opacity:.4;stroke:#fff;stroke-linecap:round;stroke-width:1.1566px;fill:none" d="m36.468 26.255l-2.111-15.849"/>
 </g>
</svg>
