<?xml version="1.0" encoding="UTF-8" standalone="no"?>
<!-- Created with Inkscape (http://www.inkscape.org/) -->
<svg id="svg7854" xmlns:rdf="http://www.w3.org/1999/02/22-rdf-syntax-ns#" xmlns="http://www.w3.org/2000/svg" height="48" width="48" version="1.0" xmlns:cc="http://web.resource.org/cc/" xmlns:xlink="http://www.w3.org/1999/xlink" xmlns:dc="http://purl.org/dc/elements/1.1/">
 <defs id="defs7856">
  <linearGradient id="linearGradient7344">
   <stop id="stop7346" style="stop-color:#eeeeec" offset="0"/>
   <stop id="stop7348" style="stop-color:#92948f" offset="1"/>
  </linearGradient>
  <linearGradient id="linearGradient7762" y2="26.023" gradientUnits="userSpaceOnUse" x2="-74.288" y1="13.247" x1="-77.712">
   <stop id="stop7579" style="stop-opacity:.31373" offset="0"/>
   <stop id="stop7581" style="stop-color:#fff" offset="1"/>
  </linearGradient>
  <radialGradient id="radialGradient7764" xlink:href="#linearGradient7344" gradientUnits="userSpaceOnUse" cy="31.679" cx="28.541" gradientTransform="matrix(2.2247 0 0 2.3034 -120.63 -41.852)" r="12"/>
  <radialGradient id="radialGradient7766" xlink:href="#linearGradient7344" gradientUnits="userSpaceOnUse" cy="17.415" cx="36.455" gradientTransform="matrix(1.8812 0 0 1.5642 82.169 .39598)" r="13.552"/>
  <linearGradient id="linearGradient7770" y2="37.919" gradientUnits="userSpaceOnUse" x2="47.954" y1="10.331" x1=".17085">
   <stop id="stop7307" style="stop-color:#fff" offset="0"/>
   <stop id="stop7313" style="stop-color:#fff;stop-opacity:0" offset=".20971"/>
   <stop id="stop7329" style="stop-color:#fff;stop-opacity:.81065" offset=".34936"/>
   <stop id="stop7321" style="stop-color:#fff;stop-opacity:0" offset=".42850"/>
   <stop id="stop7323" style="stop-color:#fff" offset=".52134"/>
   <stop id="stop7317" style="stop-color:#fff;stop-opacity:0" offset=".55747"/>
   <stop id="stop7319" style="stop-color:#fff;stop-opacity:.56805" offset=".71002"/>
   <stop id="stop7416" style="stop-color:#fff;stop-opacity:0" offset=".74395"/>
   <stop id="stop7309" style="stop-color:#fff;stop-opacity:0" offset="1"/>
  </linearGradient>
 </defs>
 <metadata id="metadata7859">
  <rdf:RDF>
   <cc:Work rdf:about="">
    <dc:format>image/svg+xml</dc:format>
    <dc:type rdf:resource="http://purl.org/dc/dcmitype/StillImage"/>
    <dc:creator>
     <cc:Agent>
      <dc:title>Lapo Calamandrei</dc:title>
     </cc:Agent>
    </dc:creator>
    <dc:source/>
    <cc:license rdf:resource="http://creativecommons.org/licenses/GPL/2.0/"/>
    <dc:title>Next Song</dc:title>
    <dc:subject>
     <rdf:Bag>
      <rdf:li>skip</rdf:li>
      <rdf:li>forward</rdf:li>
      <rdf:li>next</rdf:li>
     </rdf:Bag>
    </dc:subject>
   </cc:Work>
   <cc:License rdf:about="http://creativecommons.org/licenses/GPL/2.0/">
    <cc:permits rdf:resource="http://web.resource.org/cc/Reproduction"/>
    <cc:permits rdf:resource="http://web.resource.org/cc/Distribution"/>
    <cc:requires rdf:resource="http://web.resource.org/cc/Notice"/>
    <cc:permits rdf:resource="http://web.resource.org/cc/DerivativeWorks"/>
    <cc:requires rdf:resource="http://web.resource.org/cc/ShareAlike"/>
    <cc:requires rdf:resource="http://web.resource.org/cc/SourceCode"/>
   </cc:License>
  </rdf:RDF>
 </metadata>
 <g id="layer1">
  <g id="g7113" transform="translate(100)">
   <path id="path7638" style="opacity:.4;fill:url(#linearGradient7762);fill-rule:evenodd" d="m-59.938 11c-1.145 0-2.062 0.917-2.062 2.062v8l-15.719-9.343c-0.463-0.28-1.042-0.29-1.514-0.025-0.472 0.266-0.765 0.764-0.767 1.306v8.062l-15.719-9.343c-0.463-0.28-1.042-0.29-1.514-0.025-0.472 0.266-0.765 0.764-0.767 1.306v22c0.002 0.542 0.295 1.04 0.767 1.306 0.472 0.265 1.051 0.255 1.514-0.025l15.719-9.343v8.062c0.002 0.542 0.295 1.04 0.767 1.306 0.472 0.265 1.051 0.255 1.514-0.025l15.719-9.343v8c0 1.145 0.917 2.062 2.062 2.062h3.876c1.145 0 2.062-0.917 2.062-2.062v-21.876c0-1.145-0.917-2.062-2.062-2.062h-3.876z"/>
   <g id="g7474">
    <rect id="rect7623" style="stroke-linejoin:round;fill-rule:evenodd;stroke-dashoffset:0.7;stroke:#555753;stroke-linecap:round;fill:url(#radialGradient7764)" rx=".55243" ry=".55243" height="23" width="4.9887" y="12.5" x="-60.489"/>
    <g id="g8003" transform="translate(-238)">
     <path id="path8005" style="fill-rule:evenodd;stroke-dashoffset:0.7;stroke:#555753;stroke-linecap:square;fill:url(#radialGradient7766)" d="m141.5 35v-22l18.5 11.01-18.5 10.99z"/>
     <path id="path8007" style="stroke-dashoffset:0.7;stroke:#fff;stroke-linecap:square;fill:none" d="m22.5 14.781v18.438l15.531-9.219-15.531-9.219z" transform="translate(120)"/>
    </g>
    <g id="g7999" transform="translate(-220)">
     <path id="path7621" style="fill-rule:evenodd;stroke-dashoffset:0.7;stroke:#555753;stroke-linecap:square;fill:url(#radialGradient7766)" d="m141.5 35v-22l18.5 11.01-18.5 10.99z"/>
     <path id="path7627" style="stroke-dashoffset:0.7;stroke:#fff;stroke-linecap:square;fill:none" d="m22.5 14.781v18.438l15.531-9.219-15.531-9.219z" transform="translate(120)"/>
    </g>
    <rect id="rect7625" style="stroke-dashoffset:0.7;stroke:#fff;stroke-linecap:round;fill:none" rx="0" ry="0" height="21" width="3.0098" y="13.5" x="-59.484"/>
    <path id="path7386" style="opacity:.15;fill:url(#linearGradient7770);fill-rule:evenodd" d="m40.062 13c-0.026 0-0.062 0.036-0.062 0.062v10.626c-0.004 0.115-0.048 0.225-0.125 0.312 0.077 0.087 0.121 0.197 0.125 0.312v10.626c0 0.026 0.036 0.062 0.062 0.062h3.876c0.026 0 0.062-0.036 0.062-0.062v-21.876c0-0.026-0.036-0.062-0.062-0.062h-3.876zm-36.062 0.875v20.25l17.031-10.125-17.031-10.125zm18 0v9.813c-0.004 0.115-0.048 0.225-0.125 0.312 0.077 0.087 0.121 0.197 0.125 0.312v9.813l17.031-10.125-17.031-10.125z" transform="matrix(1,0,0,-1,-100,48)"/>
   </g>
  </g>
 </g>
</svg>
