<?xml version="1.0" encoding="UTF-8" standalone="no"?>
<!-- Created with Inkscape (http://www.inkscape.org/) -->
<svg id="svg2" xmlns:rdf="http://www.w3.org/1999/02/22-rdf-syntax-ns#" xmlns="http://www.w3.org/2000/svg" height="48" width="48" version="1.0" xmlns:cc="http://creativecommons.org/ns#" xmlns:xlink="http://www.w3.org/1999/xlink" xmlns:dc="http://purl.org/dc/elements/1.1/">
 <defs id="defs4">
  <linearGradient id="linearGradient5060">
   <stop id="stop5062" offset="0"/>
   <stop id="stop5064" style="stop-opacity:0" offset="1"/>
  </linearGradient>
  <linearGradient id="linearGradient6945">
   <stop id="stop6947" style="stop-color:#fff" offset="0"/>
   <stop id="stop6949" style="stop-color:#d3d7cf" offset="1"/>
  </linearGradient>
  <linearGradient id="linearGradient10235" y2="609.51" gradientUnits="userSpaceOnUse" x2="302.86" gradientTransform="matrix(2.7744 0 0 1.9697 -1892.2 -872.89)" y1="366.65" x1="302.86">
   <stop id="stop5050" style="stop-opacity:0" offset="0"/>
   <stop id="stop5056" offset=".5"/>
   <stop id="stop5052" style="stop-opacity:0" offset="1"/>
  </linearGradient>
  <radialGradient id="radialGradient10237" xlink:href="#linearGradient5060" gradientUnits="userSpaceOnUse" cy="486.65" cx="605.71" gradientTransform="matrix(2.7744 0 0 1.9697 -1891.6 -872.89)" r="117.14"/>
  <radialGradient id="radialGradient10239" xlink:href="#linearGradient5060" gradientUnits="userSpaceOnUse" cy="486.65" cx="605.71" gradientTransform="matrix(-2.7744 0 0 1.9697 112.76 -872.89)" r="117.14"/>
  <radialGradient id="radialGradient10241" xlink:href="#linearGradient6945" gradientUnits="userSpaceOnUse" cy="15.928" cx="12.5" gradientTransform="matrix(2.0136 0 0 1.7461 -12.669 -9.186)" r="18.5"/>
  <linearGradient id="linearGradient10243" y2="15.75" gradientUnits="userSpaceOnUse" x2="12.875" y1="35.314" x1="12.875">
   <stop id="stop7065" offset="0"/>
   <stop id="stop7067" style="stop-opacity:0" offset="1"/>
  </linearGradient>
  <radialGradient id="radialGradient10245" xlink:href="#linearGradient6945" gradientUnits="userSpaceOnUse" cy="61.48" cx="13.107" gradientTransform="matrix(2.6083 0 0 2.2188 -74.941 -118.62)" r="18.5"/>
  <linearGradient id="linearGradient10247" y2="75.499" gradientUnits="userSpaceOnUse" x2="14.125" gradientTransform="translate(1,-42)" y1="79.813" x1="14.125">
   <stop id="stop6936" style="stop-color:#babdb6" offset="0"/>
   <stop id="stop6938" style="stop-color:#babdb6;stop-opacity:0" offset="1"/>
  </linearGradient>
 </defs>
 <metadata id="metadata7">
  <rdf:RDF>
   <cc:Work rdf:about="">
    <dc:format>image/svg+xml</dc:format>
    <dc:type rdf:resource="http://purl.org/dc/dcmitype/StillImage"/>
    <dc:creator>
     <cc:Agent>
      <dc:title>Lapo Calamandrei</dc:title>
     </cc:Agent>
    </dc:creator>
    <cc:license rdf:resource="http://creativecommons.org/licenses/GPL/2.0/"/>
    <dc:title>Mail stuff</dc:title>
   </cc:Work>
   <cc:License rdf:about="http://creativecommons.org/licenses/GPL/2.0/">
    <cc:permits rdf:resource="http://web.resource.org/cc/Reproduction"/>
    <cc:permits rdf:resource="http://web.resource.org/cc/Distribution"/>
    <cc:requires rdf:resource="http://web.resource.org/cc/Notice"/>
    <cc:permits rdf:resource="http://web.resource.org/cc/DerivativeWorks"/>
    <cc:requires rdf:resource="http://web.resource.org/cc/ShareAlike"/>
    <cc:requires rdf:resource="http://web.resource.org/cc/SourceCode"/>
   </cc:License>
  </rdf:RDF>
 </metadata>
 <g id="layer1">
  <g id="g11036" transform="translate(0,-1)">
   <g id="g11038" style="opacity:.7" transform="matrix(.022163 0 0 .010695 44.212 36.054)">
    <rect id="rect11040" style="opacity:.39196;fill:url(#linearGradient10235)" height="478.36" width="1339.6" y="-150.7" x="-1559.3"/>
    <path id="path11042" style="opacity:.40206;fill:url(#radialGradient10237)" d="m-219.62-150.68v478.33c142.88 0.9 345.4-107.17 345.4-239.2 0-132.02-159.44-239.13-345.4-239.13z"/>
    <path id="path11044" style="opacity:.40206;fill:url(#radialGradient10239)" d="m-1559.3-150.68v478.33c-142.8 0.9-345.4-107.17-345.4-239.2 0-132.02 159.5-239.13 345.4-239.13z"/>
   </g>
   <rect id="rect11046" style="stroke-opacity:.99237;fill-rule:evenodd;stroke-dashoffset:0.7;stroke:#888a85;fill:url(#radialGradient10241)" rx="1.5341" ry="1.5341" height="25" width="36" y="12.5" x="6.5"/>
   <path id="path11048" style="opacity:.23134;fill:url(#linearGradient10243);fill-rule:evenodd" d="m7.9062 12.938c-0.5492 0-0.9687 0.419-0.9687 0.968v1.406l9.0935 11.594 1.125-1.25c0.47-0.469 0.935-1.085 1.969-1.5s2.584-0.656 5.375-0.656c2.78 0 4.338 0.242 5.375 0.656 1.037 0.415 1.498 1.03 1.969 1.5l1.125 1.25 9.093-11.594v-1.406c0-0.549-0.419-0.968-0.968-0.968h-33.188z"/>
   <path id="path11050" style="fill:#888a85;fill-rule:evenodd" d="m7 37l10.156-11.344c0.47-0.469 0.935-1.085 1.969-1.5s2.584-0.656 5.375-0.656c2.78 0 4.338 0.242 5.375 0.656 1.037 0.415 1.498 1.03 1.969 1.5l10.156 11.344-10.156-10.344c-2.044-1.969-4.518-2.272-7.344-2.156-2.671 0.05-5.464 0-7.344 2.156l-10.156 10.344z"/>
   <path id="path11052" style="fill:#fff;fill-rule:evenodd" d="m7 37.021l10.156-9.343c1.88-2.157 4.673-2.107 7.344-2.157 2.826-0.115 5.3 0.187 7.344 2.157l10.156 9.343-10.156-10.343c-2.044-1.97-4.518-2.272-7.344-2.157-2.671 0.05-5.464 0-7.344 2.157l-10.156 10.343z"/>
   <path id="path11054" style="fill:url(#radialGradient10245);fill-rule:evenodd" d="m-42.094 12.938c-0.549 0-0.968 0.419-0.968 0.968v1.406l10.874 10.876c0.528 0.527 0.811 0.941 1.657 1.281 0.846 0.339 2.296 0.593 5.031 0.593 2.723 0.001 4.182-0.253 5.031-0.593 0.85-0.34 1.13-0.755 1.657-1.281l10.874-10.876 0.0005-1.406c0-0.549-0.4195-0.968-0.9687-0.968h-33.188z" transform="translate(50)"/>
   <path id="path11056" style="fill:#888a85;fill-rule:evenodd" d="m7 15.5l10.156 11.344c0.47 0.469 0.935 1.085 1.969 1.5s2.584 0.656 5.375 0.656c2.78 0 4.338-0.242 5.375-0.656 1.037-0.415 1.498-1.03 1.969-1.5l10.156-11.344-10.156 10.344c-2.044 1.969-4.518 2.272-7.344 2.156-2.671-0.05-5.464 0-7.344-2.156l-10.156-10.344z"/>
   <path id="path11058" style="fill:#fff;fill-rule:evenodd" d="m7 15.5l10.156 9.344c1.88 2.156 4.673 2.106 7.344 2.156 2.826 0.116 5.3-0.187 7.344-2.156l10.156-9.344-10.156 10.344c-2.044 1.969-4.518 2.272-7.344 2.156-2.671-0.05-5.464 0-7.344-2.156l-10.156-10.344z"/>
   <path id="path11060" style="opacity:.7;stroke-linejoin:round;stroke-opacity:.99237;stroke-dashoffset:0.7;stroke:#fff;fill:none" d="m6.9062 55.5c-0.2565 0-0.4062 0.15-0.4062 0.406v22.188c0 0.256 0.1497 0.406 0.4062 0.406h33.188c0.256 0 0.406-0.15 0.406-0.406v-22.188c0-0.256-0.15-0.406-0.406-0.406h-33.188z" transform="translate(1,-42)"/>
   <path id="path11062" style="opacity:.55597;fill:url(#linearGradient10247);fill-rule:evenodd" d="m7 32.906v3.188c0 0.521 0.3852 0.906 0.9062 0.906h33.188c0.521 0 0.906-0.385 0.906-0.906v-3.188h-35z"/>
  </g>
 </g>
</svg>
