<?xml version="1.0" encoding="UTF-8" standalone="no"?>
<!-- Created with Inkscape (http://www.inkscape.org/) -->
<svg id="svg2" xmlns:rdf="http://www.w3.org/1999/02/22-rdf-syntax-ns#" xmlns="http://www.w3.org/2000/svg" height="48" width="48" version="1.0" xmlns:cc="http://web.resource.org/cc/" xmlns:xlink="http://www.w3.org/1999/xlink" xmlns:dc="http://purl.org/dc/elements/1.1/">
 <defs id="defs4">
  <linearGradient id="linearGradient6958">
   <stop id="stop6960" style="stop-color:#729fcf" offset="0"/>
   <stop id="stop6966" style="stop-color:#729fcf" offset="0.6"/>
   <stop id="stop6962" style="stop-color:#729fcf;stop-opacity:0" offset="1"/>
  </linearGradient>
  <linearGradient id="linearGradient6393" y2="32.629" gradientUnits="userSpaceOnUse" x2="16.188" gradientTransform="translate(-28)" y1="18.812" x1="17.25">
   <stop id="stop6389" style="stop-color:#fff" offset="0"/>
   <stop id="stop6391" style="stop-color:#fff;stop-opacity:0" offset="1"/>
  </linearGradient>
  <radialGradient id="radialGradient8199" gradientUnits="userSpaceOnUse" cy="22.5" cx="7.1396" gradientTransform="matrix(1.9148 -.50619 .65484 2.477 -48.624 -29.619)" r="6">
   <stop id="stop9088" offset="0"/>
   <stop id="stop9090" style="stop-opacity:0" offset="1"/>
  </radialGradient>
  <radialGradient id="radialGradient21684" gradientUnits="userSpaceOnUse" cy="21.844" cx="20.844" r="2.9063">
   <stop id="stop21624" style="stop-color:#3465a4;stop-opacity:0" offset="0"/>
   <stop id="stop21630" style="stop-color:#3465a4;stop-opacity:0" offset=".85542"/>
   <stop id="stop21626" style="stop-color:#3465a4" offset="1"/>
  </radialGradient>
  <radialGradient id="radialGradient21686" gradientUnits="userSpaceOnUse" cy="21.844" cx="20.844" r="2.9063">
   <stop id="stop21664" style="stop-color:#3465a4;stop-opacity:0" offset="0"/>
   <stop id="stop21666" style="stop-color:#3465a4;stop-opacity:0" offset=".81928"/>
   <stop id="stop21668" style="stop-color:#3465a4" offset="1"/>
  </radialGradient>
  <radialGradient id="radialGradient21688" gradientUnits="userSpaceOnUse" cy="21.844" cx="20.844" r="2.9063">
   <stop id="stop21646" style="stop-color:#3465a4;stop-opacity:0" offset="0"/>
   <stop id="stop21648" style="stop-color:#3465a4;stop-opacity:0" offset=".73494"/>
   <stop id="stop21650" style="stop-color:#3465a4" offset="1"/>
  </radialGradient>
  <linearGradient id="linearGradient5545" y2="14.001" gradientUnits="userSpaceOnUse" x2="78.5" gradientTransform="matrix(.90625 0 0 1 -65.922 19)" y1="-4.0065" x1="78.5">
   <stop id="stop2795" style="stop-color:#babdb6" offset="0"/>
   <stop id="stop2801" style="stop-color:#eeeeec" offset=".25301"/>
   <stop id="stop2797" style="stop-color:#555753" offset="1"/>
  </linearGradient>
  <linearGradient id="linearGradient5547" y2="-4.0088" gradientUnits="userSpaceOnUse" x2="80.062" gradientTransform="matrix(.90625 0 0 1 -65.922 19)" y1="14" x1="80.062">
   <stop id="stop5535" style="stop-color:#555753" offset="0"/>
   <stop id="stop5537" style="stop-color:#babdb6" offset="1"/>
  </linearGradient>
  <linearGradient id="linearGradient6537" y2="39.884" gradientUnits="userSpaceOnUse" x2="3.8449" y1="15.561" x1="3.8449">
   <stop id="stop6533" style="stop-color:#fff" offset="0"/>
   <stop id="stop6535" style="stop-color:#fff;stop-opacity:0" offset="1"/>
  </linearGradient>
  <linearGradient id="linearGradient6545" y2="12.064" gradientUnits="userSpaceOnUse" x2="4.6432" gradientTransform="matrix(.91146 0 0 .87879 2.7005 4.6667)" y1="33.047" x1="7.75">
   <stop id="stop6629" style="stop-color:#555753" offset="0"/>
   <stop id="stop6631" style="stop-color:#babdb6" offset="1"/>
  </linearGradient>
  <radialGradient id="radialGradient6553" gradientUnits="userSpaceOnUse" cy="18.817" cx="9.3204" gradientTransform="matrix(.71325 .52215 -.92808 1.1785 22.517 -6.7083)" r="12.5">
   <stop id="stop6635" style="stop-color:#eeeeec" offset="0"/>
   <stop id="stop6637" style="stop-color:#61635f" offset="1"/>
  </radialGradient>
  <linearGradient id="linearGradient6579" y2="47.497" gradientUnits="userSpaceOnUse" x2="12.198" y1="9.2597" x1="12.198">
   <stop id="stop6575" style="stop-color:#fff" offset="0"/>
   <stop id="stop6577" style="stop-color:#fff;stop-opacity:0" offset="1"/>
  </linearGradient>
  <radialGradient id="radialGradient6595" gradientUnits="userSpaceOnUse" cy="30.233" cx="23.165" gradientTransform="matrix(1.7346 -.16988 .32776 3.6175 -27.429 -73.697)" r="8.189">
   <stop id="stop6669" style="stop-color:#babdb6" offset="0"/>
   <stop id="stop6671" style="stop-color:#555753" offset="1"/>
  </radialGradient>
  <radialGradient id="radialGradient6603" gradientUnits="userSpaceOnUse" cy="20.434" cx="20.884" gradientTransform="matrix(1.3094 0 0 1.5605 -8.3886 -9.7845)" r="4">
   <stop id="stop6591" style="stop-color:#babdb6" offset="0"/>
   <stop id="stop6593" style="stop-color:#555753" offset="1"/>
  </radialGradient>
  <linearGradient id="linearGradient6641" y2="21.75" gradientUnits="userSpaceOnUse" x2="11.438" gradientTransform="matrix(.66667 0 0 1 2 -1)" y1="20.334" x1="20.226">
   <stop id="stop6381" style="stop-color:#fff;stop-opacity:0" offset="0"/>
   <stop id="stop21606" style="stop-color:#fff" offset=".5"/>
   <stop id="stop6383" style="stop-color:#fff;stop-opacity:0" offset="1"/>
  </linearGradient>
  <radialGradient id="radialGradient6657" gradientUnits="userSpaceOnUse" cy="27.053" cx="23.987" gradientTransform="matrix(-.24329 0 0 -1.2543 25.221 61.871)" r="7.75">
   <stop id="stop6653" style="stop-color:#fff" offset="0"/>
   <stop id="stop6655" style="stop-color:#fff;stop-opacity:0" offset="1"/>
  </radialGradient>
  <linearGradient id="linearGradient6558" y2="14" gradientUnits="userSpaceOnUse" x2="77.125" gradientTransform="translate(-70,2)" y1="31.561" x1="80.693">
   <stop id="stop6548" style="stop-color:#555753" offset="0"/>
   <stop id="stop6550" style="stop-color:#888a85" offset="1"/>
  </linearGradient>
  <radialGradient id="radialGradient6625" gradientUnits="userSpaceOnUse" cy="42.261" cx="30.685" gradientTransform="matrix(3.9866 0.117 0 -2.53 -104.63 112.74)" r="8.2279">
   <stop id="stop6609" style="stop-color:#eeeeec" offset="0"/>
   <stop id="stop6611" style="stop-color:#babdb6" offset="1"/>
  </radialGradient>
  <linearGradient id="linearGradient6634" y2="26.354" gradientUnits="userSpaceOnUse" x2="29.893" y1="12.159" x1="23.238">
   <stop id="stop6630" offset="0"/>
   <stop id="stop6632" style="stop-opacity:0" offset="1"/>
  </linearGradient>
  <linearGradient id="linearGradient6706" y2="25.699" gradientUnits="userSpaceOnUse" x2="28.555" y1="25.587" x1="17.5">
   <stop id="stop6702" style="stop-color:#fff" offset="0"/>
   <stop id="stop6704" style="stop-color:#fff;stop-opacity:0" offset="1"/>
  </linearGradient>
  <linearGradient id="linearGradient6801" y2=".31037" gradientUnits="userSpaceOnUse" x2="33.431" y1="45.052" x1="33.431">
   <stop id="stop6645" style="stop-color:#555753" offset="0"/>
   <stop id="stop6647" style="stop-color:#d3d7cf" offset="1"/>
  </linearGradient>
  <radialGradient id="radialGradient6964" xlink:href="#linearGradient6958" gradientUnits="userSpaceOnUse" cy="22.844" cx="72.496" gradientTransform="matrix(2.6999 0 0 3.5714 -122.47 -58.74)" r="4.8202"/>
  <radialGradient id="radialGradient6968" xlink:href="#linearGradient6958" gradientUnits="userSpaceOnUse" cy="22.844" cx="72.496" gradientTransform="matrix(2.6999 0 0 3.6828 -122.47 -61.286)" r="4.8202"/>
  <radialGradient id="radialGradient6976" xlink:href="#linearGradient6958" gradientUnits="userSpaceOnUse" cy="22.734" cx="70.531" gradientTransform="matrix(1.8087 0 0 3.5234 -57.039 -57.369)" r="3.5975"/>
  <radialGradient id="radialGradient6984" xlink:href="#linearGradient6958" gradientUnits="userSpaceOnUse" cy="22.656" cx="60.641" gradientTransform="matrix(2.1455 0 0 3.0192 -69.461 -45.747)" r="2.6194"/>
  <radialGradient id="radialGradient7118" gradientUnits="userSpaceOnUse" cy="36.863" cx="11.402" gradientTransform="matrix(1 0 0 .33058 0 24.677)" r="10.695">
   <stop id="stop17125" offset="0"/>
   <stop id="stop17127" style="stop-opacity:0" offset="1"/>
  </radialGradient>
 </defs>
 <metadata id="metadata7">
  <rdf:RDF>
   <cc:Work rdf:about="">
    <dc:format>image/svg+xml</dc:format>
    <dc:type rdf:resource="http://purl.org/dc/dcmitype/StillImage"/>
    <dc:creator>
     <cc:Agent>
      <dc:title>Ulisse Perusin</dc:title>
     </cc:Agent>
    </dc:creator>
    <cc:license rdf:resource="http://creativecommons.org/licenses/GPL/2.0/"/>
    <dc:title>Audio Volume High</dc:title>
    <dc:contributor>
     <cc:Agent>
      <dc:title>Lapo Calamandrei</dc:title>
     </cc:Agent>
    </dc:contributor>
   </cc:Work>
   <cc:License rdf:about="http://creativecommons.org/licenses/GPL/2.0/">
    <cc:permits rdf:resource="http://web.resource.org/cc/Reproduction"/>
    <cc:permits rdf:resource="http://web.resource.org/cc/Distribution"/>
    <cc:requires rdf:resource="http://web.resource.org/cc/Notice"/>
    <cc:permits rdf:resource="http://web.resource.org/cc/DerivativeWorks"/>
    <cc:requires rdf:resource="http://web.resource.org/cc/ShareAlike"/>
    <cc:requires rdf:resource="http://web.resource.org/cc/SourceCode"/>
   </cc:License>
  </rdf:RDF>
 </metadata>
 <g id="layer3" style="display:none">
  <path id="path7288" style="opacity:.83012;fill:url(#radialGradient8199);display:inline;fill-rule:evenodd" d="m-8.2188 10.5l-12 12 12 12 0.0002-24z"/>
  <path id="path2791" style="opacity:.76834;stroke:url(#linearGradient6393);stroke-width:1px;display:inline;fill:none" d="m-7 10.5l-12 12 12 12v-24z"/>
  <path id="path21580" style="opacity:.63320;fill:#fce94f;display:inline;fill-rule:evenodd" d="m19.375 9c-0.174 0.053-0.306 0.1967-0.344 0.375-0.703 2.579-2.427 3.587-4.687 5.094-2.261 1.507-4.9847 3.474-7.2815 7.812-0.0672 0.138-0.0672 0.3 0 0.438 2.2968 4.338 5.0205 6.305 7.2815 7.812 2.26 1.507 3.984 2.515 4.687 5.094 0.08 0.221 0.302 0.357 0.535 0.327s0.413-0.218 0.434-0.452v-26c0.005-0.1574-0.064-0.308-0.187-0.4064-0.123-0.0983-0.286-0.133-0.438-0.0936z" transform="translate(-42)"/>
  <path id="path21676" style="stroke:#000;stroke-width:1px;display:inline;fill:none" d="m-47.5 22.5l27.5-30.5v64l-27.5-33.5z"/>
  <path id="path21678" style="stroke-linejoin:round;stroke-dashoffset:1.2;stroke:#204a87;stroke-linecap:round;stroke-width:.12515;display:inline;fill:url(#radialGradient21684)" d="m23.688 21.844a2.8438 2.8438 0 1 1 -5.688 0 2.8438 2.8438 0 1 1 5.688 0z" transform="matrix(7.9904 0 0 7.9904 -220.77 -152.04)"/>
  <path id="path21680" style="stroke-linejoin:round;stroke-dashoffset:1.2;stroke:#204a87;stroke-linecap:round;stroke-width:.18087;display:inline;fill:url(#radialGradient21686)" d="m23.688 21.844a2.8438 2.8438 0 1 1 -5.688 0 2.8438 2.8438 0 1 1 5.688 0z" transform="matrix(5.5288 0 0 5.5288 -169.46 -98.271)"/>
  <path id="path21682" style="stroke-linejoin:round;stroke-dashoffset:1.2;stroke:#204a87;stroke-linecap:round;stroke-width:.29249;display:inline;fill:url(#radialGradient21688)" d="m23.688 21.844a2.8438 2.8438 0 1 1 -5.688 0 2.8438 2.8438 0 1 1 5.688 0z" transform="matrix(3.419 0 0 3.419 -125.49 -52.183)"/>
 </g>
 <g id="layer1">
  <path id="path16236" style="opacity:.2;fill:url(#radialGradient7118)" d="m22.097 36.863a10.695 3.5355 0 1 1 -21.39 0 10.695 3.5355 0 1 1 21.39 0z" transform="matrix(1.5366 0 0 2.42 -1.1723 -56.385)"/>
  <path id="path5330" style="stroke:#555753;stroke-linecap:round;stroke-width:1.3027;fill:#2e3436" d="m8 25a4 7 0 1 1 -8 0 4 7 0 1 1 8 0z" transform="matrix(.75 0 0 .78571 1.5 4.3572)"/>
  <path id="path6659" style="fill:#babdb6" d="m4.5 20.75a0.75 0.75 0 1 1 -1.5 0 0.75 0.75 0 1 1 1.5 0z" transform="translate(-1.5312 .65625)"/>
  <path id="path2766" style="stroke:url(#linearGradient5547);stroke-linecap:round;fill:url(#linearGradient5545)" d="m6.125 15.5c-2.001 0-3.625 3.808-3.625 8.5s1.624 8.5 3.625 8.5h3.625c2.001 0 3.625-3.808 3.625-8.5s-1.624-8.5-3.625-8.5h-3.625z"/>
  <path id="path5556" style="opacity:.6;stroke:url(#linearGradient6537);stroke-linecap:round;stroke-width:1.0578;fill:none" d="m5.5 14.5c-0.526 0-1.2661 0.546-1.9062 1.906-0.6402 1.361-1.0938 3.376-1.0938 5.594s0.4536 4.233 1.0938 5.594c0.6401 1.36 1.3802 1.906 1.9062 1.906h4c0.526 0 1.266-0.546 1.906-1.906 0.64-1.361 1.094-3.376 1.094-5.594s-0.454-4.233-1.094-5.594c-0.64-1.36-1.38-1.906-1.906-1.906h-4z" transform="matrix(.89375 0 0 1 1.2656 2)"/>
  <path id="path6556" style="fill:url(#linearGradient6558)" d="m9.6969 16c-2.0407 0-3.6969 3.577-3.6969 7.984 0 4.408 1.6562 7.985 3.6969 7.985h0.6371c2.041 0 3.697-3.577 3.697-7.985 0-4.407-1.656-7.984-3.697-7.984h-0.6371z"/>
  <path id="path1871" style="stroke:url(#linearGradient6545);stroke-linecap:round;fill:url(#radialGradient6553)" d="m8.625 24c0 9.227 9.187 14.5 14.875 14.5 3.938 0 7-6.496 7-14.5s-3.062-14.5-7-14.5c-5.688 0-14.875 5.273-14.875 14.5z"/>
  <path id="path6649" style="fill:url(#radialGradient6657)" d="m33 27.938a7.75 16.562 0 1 1 -15.5 0 7.75 16.562 0 1 1 15.5 0z" transform="matrix(1.3226 0 0 1.0264 -12.145 -4.6755)"/>
  <path id="path6639" style="opacity:.73359;fill:url(#linearGradient6641);fill-rule:evenodd" d="m16 13.375c-2.583 1.395-5.458 4.196-8 8.125 2.7-1.126 5.491-1.96 8-1.75v-6.375z"/>
  <path id="path6567" style="opacity:.58621;stroke:url(#linearGradient6579);stroke-linecap:round;stroke-width:1.1273;fill:none" d="m22.812 6.5c-2.795 0-6.724 1.4333-9.843 4.094-3.12 2.66-5.469 6.48-5.469 11.406s2.349 8.746 5.469 11.406c3.119 2.661 7.048 4.094 9.843 4.094 1.583 0 3.233-1.444 4.532-4.25 1.298-2.806 2.156-6.821 2.156-11.25s-0.858-8.444-2.156-11.25c-1.299-2.8063-2.949-4.25-4.532-4.25z" transform="matrix(.90341 0 0 .87097 2.8494 4.8387)"/>
  <path id="path1873" style="stroke:url(#linearGradient6801);stroke-linecap:round;stroke-width:.83241;fill:url(#radialGradient6595)" d="m33 27.938a7.75 16.562 0 1 1 -15.5 0 7.75 16.562 0 1 1 15.5 0z" transform="matrix(1.2258 0 0 1.1774 -8.9516 -8.8925)"/>
  <path id="path3672" style="stroke:#555753;stroke-linecap:round;fill:url(#radialGradient6603)" d="m21.616 24c0 2.484-2.383 4.5-4.066 4.5-1.684 0-3.05-2.016-3.05-4.5s1.366-4.5 3.05-4.5c1.683 0 4.066 2.016 4.066 4.5z"/>
  <path id="path6605" style="fill:url(#radialGradient6625)" d="m22 5c-2.632 0-4.858 2.2498-6.438 5.688-1.579 3.437-2.531 8.142-2.531 13.312s0.952 9.875 2.531 13.312c1.58 3.438 3.806 5.688 6.438 5.688s4.858-2.25 6.438-5.688c0.987-2.148 1.737-4.811 2.156-7.75 0.013-0.092 0.018-0.187 0.031-0.281 0.076-0.567 0.136-1.131 0.187-1.719 0.051-0.546 0.098-1.093 0.126-1.656 0.001-0.031-0.002-0.062 0-0.094 0.027-0.595 0.031-1.2 0.031-1.812 0-0.644-0.001-1.28-0.031-1.906-0.026-0.557-0.078-1.115-0.126-1.656-0.051-0.588-0.111-1.152-0.187-1.719-0.013-0.095-0.017-0.187-0.031-0.281-0.419-2.939-1.169-5.602-2.156-7.75-1.58-3.4382-3.806-5.688-6.438-5.688zm0.5 2c1.922 0 3.78 1.7656 5.188 4.844 0.879 1.924 1.576 4.335 1.968 7.031 0.079 0.539 0.134 1.095 0.188 1.656 0.047 0.526 0.099 1.054 0.125 1.594 0.032 0.62 0.062 1.236 0.062 1.875 0 0.596-0.034 1.17-0.062 1.75-0.002 0.041 0.002 0.084 0 0.125-0.028 0.537-0.075 1.073-0.125 1.594-0.054 0.561-0.109 1.117-0.188 1.656-0.392 2.696-1.089 5.107-1.968 7.031-1.408 3.078-3.266 4.844-5.188 4.844s-3.78-1.766-5.188-4.844c-1.407-3.078-2.343-7.39-2.343-12.156s0.936-9.078 2.343-12.156c1.408-3.0784 3.266-4.844 5.188-4.844z"/>
  <path id="path6615" style="opacity:.36638;stroke:url(#linearGradient6634);stroke-linecap:round;stroke-width:1.0542;fill:none" d="m33 27.938a7.75 16.562 0 1 1 -15.5 0 7.75 16.562 0 1 1 15.5 0z" transform="matrix(.90323 0 0 .99623 -.30645 -3.8321)"/>
  <path id="path6661" style="fill:#fff" d="m21.5 13.5a1 1 0 1 1 -2 0 1 1 0 1 1 2 0z" transform="translate(-16,5.3125)"/>
  <path id="path6698" style="opacity:.65517;stroke:url(#linearGradient6706);stroke-linecap:round;stroke-width:.90348;fill:none" d="m33 27.938a7.75 16.562 0 1 1 -15.5 0 7.75 16.562 0 1 1 15.5 0z" transform="matrix(1.0968 0 0 1.117 -5.6936 -7.2057)"/>
  <path id="path5501" style="fill:#fff" d="m21.5 13.5a1 1 0 1 1 -2 0 1 1 0 1 1 2 0z" transform="translate(-5,-1.875)"/>
 </g>
 <g id="layer2">
  <g id="g26136" style="stroke:url(#radialGradient6964)" transform="matrix(.59494 0 0 1.2243 1.374 -4.2219)">
   <path id="path25249" style="stroke-linejoin:round;stroke-dashoffset:1.2;stroke:url(#radialGradient6968);stroke-linecap:round;stroke-width:1.1717;fill:none" d="m69.031 40.188c5.16-4.167 8.469-10.545 8.469-17.688 0-6.765-2.96-12.836-7.656-17"/>
  </g>
  <g id="g27916" style="stroke:#729fcf" transform="matrix(.51647 0 0 1.2243 3.5434 -4.2219)">
   <path id="path21632" style="stroke-linejoin:round;stroke-dashoffset:1.2;stroke:url(#radialGradient6976);stroke-linecap:round;stroke-width:1.2576;fill:none" d="m67.562 34.781c3.614-2.881 5.938-7.303 5.938-12.281 0-4.706-2.064-8.93-5.344-11.812"/>
  </g>
  <g id="g28807" style="stroke:#729fcf" transform="matrix(.35351 0 0 1.2243 13.436 -3.801)">
   <path id="path27920" style="stroke-linejoin:round;stroke-dashoffset:1.2;stroke:url(#radialGradient6984);stroke-linecap:round;stroke-width:1.5201;fill:none" d="m58.781 30.156c2.27-1.78 3.719-4.55 3.719-7.656 0-2.939-1.312-5.56-3.375-7.344"/>
  </g>
 </g>
</svg>
